<?xml version="1.0" encoding="utf-8"?>
<!-- Generator: Adobe Illustrator 19.0.0, SVG Export Plug-In . SVG Version: 6.00 Build 0)  -->
<svg version="1.1" id="Layer_1" xmlns="http://www.w3.org/2000/svg" xmlns:xlink="http://www.w3.org/1999/xlink" x="0px" y="0px"
	 viewBox="-558.3 565.6 177.6 86" style="enable-background:new -558.3 565.6 177.6 86;" xml:space="preserve">
<style type="text/css">
	.st0{fill:#FFFFFF;}
</style>
<g>
	<path class="st0" d="M-474.2,566.6h-31v0h-7.1c-24.3,0-44.9,19.6-44.9,42.5c0,2.7,0.1,4.2,0.8,6.7h23.8c-1.4-2.5-1.4-5.3-1.4-6.7
		c0-7.4,7.6-19.9,21.8-19.9l6.8,0l24.3,0v-2l-9.6-2.3l16.6-0.7v-2.1l-16.6-1.7l16.6-1.3v-2.1l-16.6-1.2l16.6-1.9v-2.1l-16.6-0.6
		l16.6-2.4V566.6z"/>
	<path class="st0" d="M-555.3,651.7h31v0h7.1c24.3,0,44.9-19.6,44.9-42.5c0-2.7-0.1-4.2-0.8-6.7h-23.8c1.4,2.5,1.4,5.3,1.4,6.7
		c0,7.4-7.6,19.9-21.8,19.9l-6.8,0l-24.3,0v2l9.6,2.3l-16.6,0.7v2.1l16.6,1.7l-16.6,1.3v2.1l16.6,1.2l-16.6,1.9v2.1l16.6,0.6
		l-16.6,2.4V651.7L-555.3,651.7z"/>
	<path class="st0" d="M-458.2,576.1c0.1-0.4,0.3-0.5,0.6-0.3c0.5,0.2,2,0.8,3.2,0.8c0.8,0,1.4-0.3,1.4-1.2c0-0.9-0.6-1.2-1.6-1.6
		c-2-0.7-3.9-1.4-3.9-3.9c0-2.4,2.1-3.5,4.6-3.5c1.3,0,2.4,0.3,3,0.5c0.4,0.1,0.5,0.3,0.4,0.7l-0.3,1.4c-0.1,0.4-0.3,0.4-0.6,0.3
		c-0.3-0.1-1.4-0.5-2.4-0.5c-0.8,0-1.5,0.3-1.5,1.1c0,0.9,1,1.2,2.1,1.7c1.5,0.6,3.3,1.3,3.3,3.7c0,2.3-1.8,3.7-4.3,3.7
		c-1.6,0-2.9-0.3-3.8-0.7c-0.3-0.1-0.5-0.4-0.4-0.8L-458.2,576.1z"/>
	<path class="st0" d="M-439.9,578.3c0,0.4-0.2,0.5-0.5,0.5h-7.5c-0.4,0-0.5-0.2-0.5-0.5v-11.1c0-0.4,0.2-0.5,0.5-0.5h7.4
		c0.4,0,0.5,0.2,0.5,0.5v1.4c0,0.4-0.2,0.5-0.5,0.5h-4.6v2.2h4.3c0.4,0,0.5,0.2,0.5,0.5v1.3c0,0.4-0.2,0.5-0.5,0.5h-4.3v2.6h4.8
		c0.4,0,0.5,0.2,0.5,0.5L-439.9,578.3L-439.9,578.3z"/>
	<path class="st0" d="M-438.1,567.5c0-0.4,0.2-0.6,0.6-0.7c0.6-0.1,2-0.3,3.5-0.3c2.5,0,4.9,0.7,4.9,4.2c0,2-0.9,3.2-2.2,3.8
		l2.6,3.9c0.2,0.3,0.1,0.5-0.2,0.5h-2.4c-0.4,0-0.6-0.1-0.8-0.5l-2.1-3.6c-0.2,0-0.3,0-0.5-0.1v3.6c0,0.4-0.2,0.5-0.5,0.5h-2.2
		c-0.4,0-0.5-0.2-0.5-0.5L-438.1,567.5L-438.1,567.5z M-434.8,572.6c0.3,0,0.6,0.1,0.8,0.1c1,0,1.8-0.3,1.8-1.9
		c0-1.6-0.9-1.9-1.8-1.9c-0.3,0-0.6,0-0.8,0V572.6L-434.8,572.6z"/>
	<path class="st0" d="M-428.3,567.2c-0.1-0.3,0-0.5,0.4-0.5h2.2c0.4,0,0.6,0.2,0.7,0.5l2.2,7.2l2.2-7.2c0.1-0.4,0.3-0.5,0.7-0.5h2.2
		c0.4,0,0.5,0.2,0.4,0.5l-3.7,11.1c-0.1,0.3-0.3,0.5-0.7,0.5h-2c-0.4,0-0.6-0.2-0.7-0.5L-428.3,567.2z"/>
	<path class="st0" d="M-413,578.3c0,0.4-0.2,0.5-0.5,0.5h-2.2c-0.4,0-0.5-0.2-0.5-0.5v-11.1c0-0.4,0.2-0.5,0.5-0.5h2.2
		c0.4,0,0.5,0.2,0.5,0.5V578.3z"/>
	<path class="st0" d="M-407.9,572.7c0,3.2,1.5,3.9,3.3,3.9c0.6,0,1.5-0.1,1.8-0.1c0.4,0,0.5,0.1,0.6,0.5l0.1,1.3
		c0,0.4-0.1,0.6-0.5,0.6c-0.7,0.1-1.7,0.2-2.6,0.2c-3.2,0-6-1.3-6-6.3c0-4.8,3.1-6.3,6.1-6.3c1.1,0,2,0.2,2.6,0.4
		c0.4,0.1,0.5,0.3,0.5,0.7l-0.3,1.2c-0.1,0.4-0.3,0.5-0.7,0.4c-0.5-0.1-1.2-0.3-1.9-0.3C-406.6,568.8-407.9,569.7-407.9,572.7z"/>
	<path class="st0" d="M-390.4,572.8c0,3.2-0.9,6.3-5.4,6.3c-4.5,0-5.3-3.1-5.3-6.3c0-3.2,0.9-6.3,5.4-6.3
		C-391.3,566.5-390.4,569.6-390.4,572.8z M-393.6,572.8c0-2.1-0.3-3.8-2.1-3.8c-1.9,0-2.2,1.7-2.2,3.8c0,2.1,0.3,3.7,2.2,3.7
		S-393.6,574.8-393.6,572.8z"/>
	<path class="st0" d="M-389,576.1c0.1-0.4,0.3-0.5,0.6-0.3c0.5,0.2,2,0.8,3.2,0.8c0.8,0,1.4-0.3,1.4-1.2c0-0.9-0.6-1.2-1.6-1.6
		c-2-0.7-3.9-1.4-3.9-3.9c0-2.4,2.1-3.5,4.6-3.5c1.3,0,2.4,0.3,3,0.5c0.4,0.1,0.5,0.3,0.4,0.7l-0.3,1.4c-0.1,0.4-0.3,0.4-0.6,0.3
		c-0.3-0.1-1.4-0.5-2.4-0.5c-0.8,0-1.5,0.3-1.5,1.1c0,0.9,1,1.2,2.1,1.7c1.5,0.6,3.3,1.3,3.3,3.7c0,2.3-1.8,3.7-4.3,3.7
		c-1.6,0-2.9-0.3-3.8-0.7c-0.3-0.1-0.5-0.4-0.4-0.8L-389,576.1z"/>
	<path class="st0" d="M-453.9,597.2c-1.8,0-2.7-0.1-3.7-0.3c-0.3-0.1-0.5-0.2-0.5-0.6v-10.6c0-0.4,0.2-0.6,0.6-0.6
		c1-0.1,2.4-0.3,3.7-0.3c3.1,0,5.7,1.1,5.7,6.3C-448.1,596.2-451,597.2-453.9,597.2z M-454.8,594.6c0.3,0,0.5,0,0.7,0
		c2.2,0,2.7-1.3,2.7-3.6c0-2.2-0.4-3.8-2.5-3.8c-0.3,0-0.6,0-1,0.1V594.6z"/>
	<path class="st0" d="M-437.7,596.5c0,0.4-0.2,0.5-0.5,0.5h-7.5c-0.4,0-0.5-0.2-0.5-0.5v-11.1c0-0.4,0.2-0.5,0.5-0.5h7.4
		c0.4,0,0.5,0.2,0.5,0.5v1.4c0,0.4-0.2,0.5-0.5,0.5h-4.6v2.2h4.3c0.4,0,0.5,0.2,0.5,0.5v1.3c0,0.4-0.2,0.5-0.5,0.5h-4.3v2.6h4.8
		c0.4,0,0.5,0.2,0.5,0.5V596.5L-437.7,596.5z"/>
	<path class="st0" d="M-425.4,597c-0.4,0-0.6-0.2-0.7-0.5l-0.7-2.3h-3.1l-0.7,2.3c-0.1,0.4-0.3,0.5-0.7,0.5h-2.2
		c-0.4,0-0.5-0.2-0.4-0.5l3.7-11.1c0.1-0.3,0.3-0.5,0.7-0.5h2.3c0.4,0,0.6,0.2,0.7,0.5l3.6,11.1c0.1,0.4,0,0.5-0.4,0.5L-425.4,597
		L-425.4,597z M-428.4,588.3l-0.9,3.6h1.7L-428.4,588.3z"/>
	<path class="st0" d="M-418.9,590.9c0,3.2,1.5,3.9,3.3,3.9c0.6,0,1.5-0.1,1.8-0.1c0.4,0,0.5,0.1,0.6,0.5l0.1,1.3
		c0,0.4-0.1,0.6-0.5,0.6c-0.7,0.1-1.7,0.2-2.6,0.2c-3.2,0-6-1.3-6-6.3c0-4.8,3.1-6.3,6.1-6.3c1.1,0,2,0.2,2.6,0.4
		c0.4,0.1,0.5,0.3,0.5,0.7l-0.3,1.2c-0.1,0.4-0.3,0.5-0.7,0.4c-0.5-0.1-1.2-0.3-1.9-0.3C-417.6,587-418.9,587.9-418.9,590.9z
		 M-415.8,597.9c0.4,0,0.6,0.2,0.7,0.5c0,0,0.1,0.3,0.1,0.7c0,1.5-1,2.5-2,3.2c-0.3,0.2-0.6,0.2-0.9-0.1l-0.5-0.6
		c-0.2-0.3-0.2-0.5,0-0.8c0.3-0.3,0.6-0.8,0.6-1.5c0-0.4-0.1-0.8-0.1-0.9c-0.1-0.3,0-0.5,0.4-0.5L-415.8,597.9L-415.8,597.9z"/>
	<path class="st0" d="M-403.8,597c-0.4,0-0.6-0.2-0.7-0.5l-0.7-2.3h-3.1l-0.7,2.3c-0.1,0.4-0.3,0.5-0.7,0.5h-2.2
		c-0.4,0-0.5-0.2-0.4-0.5l3.7-11.1c0.1-0.3,0.3-0.5,0.7-0.5h2.3c0.4,0,0.6,0.2,0.7,0.5l3.6,11.1c0.1,0.4,0,0.5-0.4,0.5L-403.8,597
		L-403.8,597z M-405,581.5c0.3-0.2,0.5-0.2,0.7,0l0.4,0.4c0.3,0.3,0.3,0.5,0.1,0.8c-0.3,0.4-1,1-1.9,1c-1,0-1.6-0.8-2.4-0.8
		c-0.4,0-0.6,0.2-0.7,0.3c-0.2,0.3-0.4,0.3-0.7,0l-0.3-0.3c-0.3-0.3-0.3-0.5-0.1-0.8c0.2-0.3,0.9-1.1,1.8-1.1c1.1,0,1.7,0.8,2.5,0.8
		C-405.3,581.7-405.1,581.6-405,581.5z M-406.8,588.3l-0.9,3.6h1.7L-406.8,588.3z"/>
	<path class="st0" d="M-389.9,591c0,3.2-0.9,6.3-5.4,6.3c-4.5,0-5.3-3.1-5.3-6.3c0-3.2,0.9-6.3,5.4-6.3
		C-390.8,584.7-389.9,587.8-389.9,591z M-393.1,591c0-2.1-0.3-3.8-2.1-3.8c-1.9,0-2.2,1.7-2.2,3.8c0,2.1,0.3,3.7,2.2,3.7
		S-393.1,593-393.1,591z"/>
	<path class="st0" d="M-458.2,612.6c0.1-0.4,0.3-0.5,0.6-0.3c0.5,0.2,2,0.8,3.2,0.8c0.8,0,1.4-0.3,1.4-1.2c0-0.9-0.6-1.2-1.6-1.6
		c-2-0.7-3.9-1.4-3.9-3.9c0-2.4,2.1-3.5,4.6-3.5c1.3,0,2.4,0.3,3,0.5c0.4,0.1,0.5,0.3,0.4,0.7l-0.3,1.4c-0.1,0.4-0.3,0.4-0.6,0.3
		c-0.3-0.1-1.4-0.5-2.4-0.5c-0.8,0-1.5,0.3-1.5,1.1c0,0.9,1,1.2,2.1,1.7c1.5,0.6,3.3,1.3,3.3,3.7c0,2.3-1.8,3.7-4.3,3.7
		c-1.6,0-2.9-0.3-3.8-0.7c-0.3-0.1-0.5-0.4-0.4-0.8L-458.2,612.6z"/>
	<path class="st0" d="M-438.2,609.2c0,3.2-0.9,6.3-5.4,6.3c-4.5,0-5.3-3.1-5.3-6.3c0-3.2,0.9-6.3,5.4-6.3
		C-439,602.9-438.2,606-438.2,609.2z M-441.4,609.2c0-2.1-0.3-3.8-2.1-3.8c-1.9,0-2.2,1.7-2.2,3.8c0,2.1,0.3,3.7,2.2,3.7
		S-441.4,611.3-441.4,609.2z"/>
	<path class="st0" d="M-433.5,609.1c0,3.2,1.5,3.9,3.3,3.9c0.6,0,1.5-0.1,1.8-0.1c0.4,0,0.5,0.1,0.6,0.5l0.1,1.3
		c0,0.4-0.1,0.6-0.5,0.6c-0.7,0.1-1.7,0.2-2.6,0.2c-3.2,0-6-1.3-6-6.3c0-4.8,3.1-6.3,6.1-6.3c1.1,0,2,0.2,2.6,0.4
		c0.4,0.1,0.5,0.3,0.5,0.7l-0.3,1.2c-0.1,0.4-0.3,0.5-0.7,0.4c-0.5-0.1-1.2-0.3-1.9-0.3C-432.2,605.2-433.5,606.1-433.5,609.1z"/>
	<path class="st0" d="M-422.7,614.7c0,0.4-0.2,0.5-0.5,0.5h-2.2c-0.4,0-0.5-0.2-0.5-0.5v-11.1c0-0.4,0.2-0.5,0.5-0.5h2.2
		c0.4,0,0.5,0.2,0.5,0.5V614.7z"/>
	<path class="st0" d="M-413,615.3c-0.4,0-0.6-0.2-0.7-0.5l-0.7-2.3h-3.1l-0.7,2.3c-0.1,0.4-0.3,0.5-0.7,0.5h-2.2
		c-0.4,0-0.5-0.2-0.4-0.5l3.7-11.1c0.1-0.3,0.3-0.5,0.7-0.5h2.3c0.4,0,0.6,0.2,0.7,0.5l3.6,11.1c0.1,0.4,0,0.5-0.4,0.5L-413,615.3
		L-413,615.3L-413,615.3z M-416,606.5l-0.9,3.6h1.7L-416,606.5z"/>
	<path class="st0" d="M-401.2,614.7c0,0.4-0.2,0.5-0.5,0.5h-7c-0.4,0-0.5-0.2-0.5-0.5v-11.1c0-0.4,0.2-0.5,0.5-0.5h2.2
		c0.4,0,0.5,0.2,0.5,0.5v9.1h4.2c0.4,0,0.5,0.2,0.5,0.5L-401.2,614.7L-401.2,614.7L-401.2,614.7z"/>
	<path class="st0" d="M-454.8,632.9c0,0.4-0.2,0.5-0.5,0.5h-2.2c-0.4,0-0.5-0.2-0.5-0.5v-11.1c0-0.4,0.2-0.5,0.5-0.5h2.2
		c0.4,0,0.5,0.2,0.5,0.5V632.9z"/>
	<path class="st0" d="M-452.6,622.1c0-0.4,0.2-0.6,0.6-0.7c0.6-0.1,2.1-0.3,3.5-0.3c2.5,0,5,0.7,5,4.2c0,2.8-1.9,4-4.3,4
		c-0.5,0-1,0-1.5-0.1v3.7c0,0.4-0.2,0.5-0.5,0.5h-2.2c-0.4,0-0.5-0.2-0.5-0.5L-452.6,622.1L-452.6,622.1z M-449.4,627.1
		c0.3,0,0.5,0,0.8,0c1,0,1.8-0.3,1.8-1.7c0-1.6-0.9-1.9-1.8-1.9c-0.3,0-0.6,0-0.8,0.1V627.1z"/>
	<path class="st0" d="M-439.2,627.3c0,3.2,1.5,3.9,3.3,3.9c0.6,0,1.5-0.1,1.8-0.1c0.4,0,0.5,0.1,0.6,0.5l0.1,1.3
		c0,0.4-0.1,0.6-0.5,0.6c-0.7,0.1-1.7,0.2-2.6,0.2c-3.2,0-6-1.3-6-6.3c0-4.8,3.1-6.3,6.1-6.3c1.1,0,2,0.2,2.6,0.4
		c0.4,0.1,0.5,0.3,0.5,0.7l-0.3,1.2c-0.1,0.4-0.3,0.5-0.7,0.4c-0.5-0.1-1.2-0.3-1.9-0.3C-437.9,623.5-439.2,624.3-439.2,627.3z"/>
	<path class="st0" d="M-424.1,633.5c-0.4,0-0.6-0.2-0.7-0.5l-0.7-2.3h-3.1l-0.7,2.3c-0.1,0.4-0.3,0.5-0.7,0.5h-2.2
		c-0.4,0-0.5-0.2-0.4-0.5l3.7-11.1c0.1-0.3,0.3-0.5,0.7-0.5h2.3c0.4,0,0.6,0.2,0.7,0.5l3.6,11.1c0.1,0.4,0,0.5-0.4,0.5L-424.1,633.5
		L-424.1,633.5L-424.1,633.5z M-427.1,624.7l-0.9,3.6h1.7L-427.1,624.7z"/>
	<path class="st0" d="M-404.1,580.2c-0.1-0.4-0.3-0.5-0.7-0.5h-1.8c-0.4,0-0.5,0.2-0.4,0.5c0,0.1,0.1,0.4,0.1,0.7h2.8
		C-404,580.5-404.1,580.2-404.1,580.2z"/>
</g>
</svg>
